<svg xmlns="http://www.w3.org/2000/svg" version="1.1" xmlns:xlink="http://www.w3.org/1999/xlink" xmlns:svgjs="http://svgjs.dev/svgjs" width="1440" height="560" preserveAspectRatio="none" viewBox="0 0 1440 560">
    <g mask="url(&quot;#SvgjsMask1428&quot;)" fill="none">
        <g mask="url(&quot;#SvgjsMask1429&quot;)">
            <path d="M1034 286L990 242L946 242M1166 286L1122 242L1078 242L1034 242L990 198M1078 286L1034 330L990 330L946 330M1474 286L1430 286L1386 286L1342 286L1298 286L1254 286L1210 286L1166 286L1122 286L1078 286L1034 286L990 286" stroke="rgba(0, 0, 0, 0.07)" stroke-width="7.33"></path>
            <path d="M979 286 a11 11 0 1 0 22 0 a11 11 0 1 0 -22 0zM935 242 a11 11 0 1 0 22 0 a11 11 0 1 0 -22 0zM979 198 a11 11 0 1 0 22 0 a11 11 0 1 0 -22 0zM935 330 a11 11 0 1 0 22 0 a11 11 0 1 0 -22 0z" fill="rgba(0, 0, 0, 0.07)"></path>
            <path d="M1386 242L1342 198L1298 198L1254 198M1474 242L1430 242L1386 242L1342 242L1298 242L1254 242L1210 242" stroke="rgba(0, 0, 0, 0.07)" stroke-width="7.33"></path>
            <path d="M1199 242 a11 11 0 1 0 22 0 a11 11 0 1 0 -22 0zM1243 198 a11 11 0 1 0 22 0 a11 11 0 1 0 -22 0z" fill="rgba(0, 0, 0, 0.07)"></path>
            <path d="M1210 330L1166 374M1474 330L1430 330L1386 330L1342 330L1298 330L1254 330L1210 330L1166 330" stroke="rgba(0, 0, 0, 0.07)" stroke-width="7.33"></path>
            <path d="M1155 330 a11 11 0 1 0 22 0 a11 11 0 1 0 -22 0zM1155 374 a11 11 0 1 0 22 0 a11 11 0 1 0 -22 0z" fill="rgba(0, 0, 0, 0.07)"></path>
            <path d="M1474 198L1430 198" stroke="rgba(0, 0, 0, 0.07)" stroke-width="7.33"></path>
            <path d="M1419 198 a11 11 0 1 0 22 0 a11 11 0 1 0 -22 0z" fill="rgba(0, 0, 0, 0.07)"></path>
            <path d="M1430 374L1386 418L1342 418L1298 418L1254 418M1210 418L1166 462L1122 462M1122 418L1078 374L1034 374M1474 374L1430 374L1386 374L1342 374L1298 374L1254 374L1210 418L1166 418L1122 418L1078 418" stroke="rgba(0, 0, 0, 0.07)" stroke-width="7.33"></path>
            <path d="M1067 418 a11 11 0 1 0 22 0 a11 11 0 1 0 -22 0zM1243 418 a11 11 0 1 0 22 0 a11 11 0 1 0 -22 0zM1111 462 a11 11 0 1 0 22 0 a11 11 0 1 0 -22 0zM1023 374 a11 11 0 1 0 22 0 a11 11 0 1 0 -22 0z" fill="rgba(0, 0, 0, 0.07)"></path>
            <path d="M1166 154L1122 198L1078 198L1034 198M1386 154L1342 110M1210 154L1166 110L1122 110L1078 110M1474 154L1430 154L1386 154L1342 154L1298 154L1254 154L1210 154L1166 154L1122 154L1078 154L1034 154L990 154" stroke="rgba(0, 0, 0, 0.07)" stroke-width="7.33"></path>
            <path d="M979 154 a11 11 0 1 0 22 0 a11 11 0 1 0 -22 0zM1023 198 a11 11 0 1 0 22 0 a11 11 0 1 0 -22 0zM1331 110 a11 11 0 1 0 22 0 a11 11 0 1 0 -22 0zM1067 110 a11 11 0 1 0 22 0 a11 11 0 1 0 -22 0z" fill="rgba(0, 0, 0, 0.07)"></path>
        </g>
    </g>
    <defs>
        <mask id="SvgjsMask1428">
            <rect width="1440" height="560" fill="#ffffff"></rect>
        </mask>
        <mask id="SvgjsMask1429">
            <rect width="1440" height="560" fill="white"></rect>
            <path d="M984.5 286 a5.5 5.5 0 1 0 11 0 a5.5 5.5 0 1 0 -11 0zM940.5 242 a5.5 5.5 0 1 0 11 0 a5.5 5.5 0 1 0 -11 0zM984.5 198 a5.5 5.5 0 1 0 11 0 a5.5 5.5 0 1 0 -11 0zM940.5 330 a5.5 5.5 0 1 0 11 0 a5.5 5.5 0 1 0 -11 0z" fill="black"></path>
            <path d="M1204.5 242 a5.5 5.5 0 1 0 11 0 a5.5 5.5 0 1 0 -11 0zM1248.5 198 a5.5 5.5 0 1 0 11 0 a5.5 5.5 0 1 0 -11 0z" fill="black"></path>
            <path d="M1160.5 330 a5.5 5.5 0 1 0 11 0 a5.5 5.5 0 1 0 -11 0zM1160.5 374 a5.5 5.5 0 1 0 11 0 a5.5 5.5 0 1 0 -11 0z" fill="black"></path>
            <path d="M1424.5 198 a5.5 5.5 0 1 0 11 0 a5.5 5.5 0 1 0 -11 0z" fill="black"></path>
            <path d="M1072.5 418 a5.5 5.5 0 1 0 11 0 a5.5 5.5 0 1 0 -11 0zM1248.5 418 a5.5 5.5 0 1 0 11 0 a5.5 5.5 0 1 0 -11 0zM1116.5 462 a5.5 5.5 0 1 0 11 0 a5.5 5.5 0 1 0 -11 0zM1028.5 374 a5.5 5.5 0 1 0 11 0 a5.5 5.5 0 1 0 -11 0z" fill="black"></path>
            <path d="M984.5 154 a5.5 5.5 0 1 0 11 0 a5.5 5.5 0 1 0 -11 0zM1028.5 198 a5.5 5.5 0 1 0 11 0 a5.5 5.5 0 1 0 -11 0zM1336.5 110 a5.5 5.5 0 1 0 11 0 a5.5 5.5 0 1 0 -11 0zM1072.5 110 a5.5 5.5 0 1 0 11 0 a5.5 5.5 0 1 0 -11 0z" fill="black"></path>
        </mask>
    </defs>
</svg>