<svg xmlns="http://www.w3.org/2000/svg" version="1.1" xmlns:xlink="http://www.w3.org/1999/xlink" xmlns:svgjs="http://svgjs.dev/svgjs" width="1440" height="560" preserveAspectRatio="none" viewBox="0 0 1440 560">
    <g mask="url(&quot;#SvgjsMask1014&quot;)" fill="none">
        <path d="M-57.3 402.09L-57.3 402.09" stroke="rgba(0, 0, 0, 0.05)" stroke-width="1.5"></path>
        <path d="M-57.3 402.09L-92.97 488.01" stroke="rgba(0, 0, 0, 0.05)" stroke-width="1.5"></path>
        <path d="M-57.3 402.09L71.33 365.48" stroke="rgba(0, 0, 0, 0.05)" stroke-width="1.5"></path>
        <path d="M-57.3 402.09L102.79 539.55" stroke="rgba(0, 0, 0, 0.05)" stroke-width="1.5"></path>
        <path d="M-57.3 402.09L208.08 351.77" stroke="rgba(0, 0, 0, 0.05)" stroke-width="1.5"></path>
        <path d="M-57.3 402.09L83.93 647.38" stroke="rgba(0, 0, 0, 0.05)" stroke-width="1.5"></path>
        <path d="M-57.3 402.09L-37.82 704.16" stroke="rgba(0, 0, 0, 0.05)" stroke-width="1.5"></path>
        <path d="M-92.97 488.01L-92.97 488.01" stroke="rgba(0, 0, 0, 0.05)" stroke-width="1.5"></path>
        <path d="M-92.97 488.01L102.79 539.55" stroke="rgba(0, 0, 0, 0.05)" stroke-width="1.5"></path>
        <path d="M-92.97 488.01L71.33 365.48" stroke="rgba(0, 0, 0, 0.05)" stroke-width="1.5"></path>
        <path d="M-92.97 488.01L-37.82 704.16" stroke="rgba(0, 0, 0, 0.05)" stroke-width="1.5"></path>
        <path d="M-92.97 488.01L83.93 647.38" stroke="rgba(0, 0, 0, 0.05)" stroke-width="1.5"></path>
        <path d="M-37.82 704.16L-37.82 704.16" stroke="rgba(0, 0, 0, 0.05)" stroke-width="1.5"></path>
        <path d="M-37.82 704.16L83.93 647.38" stroke="rgba(0, 0, 0, 0.05)" stroke-width="1.5"></path>
        <path d="M-37.82 704.16L102.79 539.55" stroke="rgba(0, 0, 0, 0.05)" stroke-width="1.5"></path>
        <path d="M71.33 365.48L71.33 365.48" stroke="rgba(0, 0, 0, 0.05)" stroke-width="1.5"></path>
        <path d="M71.33 365.48L208.08 351.77" stroke="rgba(0, 0, 0, 0.05)" stroke-width="1.5"></path>
        <path d="M71.33 365.48L102.79 539.55" stroke="rgba(0, 0, 0, 0.05)" stroke-width="1.5"></path>
        <path d="M102.79 539.55L102.79 539.55" stroke="rgba(0, 0, 0, 0.05)" stroke-width="1.5"></path>
        <path d="M102.79 539.55L83.93 647.38" stroke="rgba(0, 0, 0, 0.05)" stroke-width="1.5"></path>
        <path d="M102.79 539.55L246.78 511.56" stroke="rgba(0, 0, 0, 0.05)" stroke-width="1.5"></path>
        <path d="M102.79 539.55L252.67 666.67" stroke="rgba(0, 0, 0, 0.05)" stroke-width="1.5"></path>
        <path d="M83.93 647.38L83.93 647.38" stroke="rgba(0, 0, 0, 0.05)" stroke-width="1.5"></path>
        <path d="M83.93 647.38L252.67 666.67" stroke="rgba(0, 0, 0, 0.05)" stroke-width="1.5"></path>
        <path d="M83.93 647.38L246.78 511.56" stroke="rgba(0, 0, 0, 0.05)" stroke-width="1.5"></path>
        <path d="M208.08 351.77L208.08 351.77" stroke="rgba(0, 0, 0, 0.05)" stroke-width="1.5"></path>
        <path d="M208.08 351.77L337.85 361.95" stroke="rgba(0, 0, 0, 0.05)" stroke-width="1.5"></path>
        <path d="M246.78 511.56L246.78 511.56" stroke="rgba(0, 0, 0, 0.05)" stroke-width="1.5"></path>
        <path d="M246.78 511.56L367.83 523.43" stroke="rgba(0, 0, 0, 0.05)" stroke-width="1.5"></path>
        <path d="M246.78 511.56L252.67 666.67" stroke="rgba(0, 0, 0, 0.05)" stroke-width="1.5"></path>
        <path d="M246.78 511.56L208.08 351.77" stroke="rgba(0, 0, 0, 0.05)" stroke-width="1.5"></path>
        <path d="M246.78 511.56L337.85 361.95" stroke="rgba(0, 0, 0, 0.05)" stroke-width="1.5"></path>
        <path d="M252.67 666.67L252.67 666.67" stroke="rgba(0, 0, 0, 0.05)" stroke-width="1.5"></path>
        <path d="M252.67 666.67L368.04 693.68" stroke="rgba(0, 0, 0, 0.05)" stroke-width="1.5"></path>
        <path d="M337.85 361.95L337.85 361.95" stroke="rgba(0, 0, 0, 0.05)" stroke-width="1.5"></path>
        <path d="M337.85 361.95L367.83 523.43" stroke="rgba(0, 0, 0, 0.05)" stroke-width="1.5"></path>
        <path d="M337.85 361.95L513.24 401.67" stroke="rgba(0, 0, 0, 0.05)" stroke-width="1.5"></path>
        <path d="M337.85 361.95L515.17 521.38" stroke="rgba(0, 0, 0, 0.05)" stroke-width="1.5"></path>
        <path d="M367.83 523.43L367.83 523.43" stroke="rgba(0, 0, 0, 0.05)" stroke-width="1.5"></path>
        <path d="M367.83 523.43L515.17 521.38" stroke="rgba(0, 0, 0, 0.05)" stroke-width="1.5"></path>
        <path d="M367.83 523.43L368.04 693.68" stroke="rgba(0, 0, 0, 0.05)" stroke-width="1.5"></path>
        <path d="M367.83 523.43L252.67 666.67" stroke="rgba(0, 0, 0, 0.05)" stroke-width="1.5"></path>
        <path d="M368.04 693.68L368.04 693.68" stroke="rgba(0, 0, 0, 0.05)" stroke-width="1.5"></path>
        <path d="M513.24 401.67L513.24 401.67" stroke="rgba(0, 0, 0, 0.05)" stroke-width="1.5"></path>
        <path d="M513.24 401.67L515.17 521.38" stroke="rgba(0, 0, 0, 0.05)" stroke-width="1.5"></path>
        <path d="M513.24 401.67L675.48 347.61" stroke="rgba(0, 0, 0, 0.05)" stroke-width="1.5"></path>
        <path d="M513.24 401.67L367.83 523.43" stroke="rgba(0, 0, 0, 0.05)" stroke-width="1.5"></path>
        <path d="M513.24 401.67L660.98 532.86" stroke="rgba(0, 0, 0, 0.05)" stroke-width="1.5"></path>
        <path d="M515.17 521.38L515.17 521.38" stroke="rgba(0, 0, 0, 0.05)" stroke-width="1.5"></path>
        <path d="M515.17 521.38L660.98 532.86" stroke="rgba(0, 0, 0, 0.05)" stroke-width="1.5"></path>
        <path d="M515.17 521.38L551.98 671.1" stroke="rgba(0, 0, 0, 0.05)" stroke-width="1.5"></path>
        <path d="M515.17 521.38L368.04 693.68" stroke="rgba(0, 0, 0, 0.05)" stroke-width="1.5"></path>
        <path d="M515.17 521.38L675.48 347.61" stroke="rgba(0, 0, 0, 0.05)" stroke-width="1.5"></path>
        <path d="M551.98 671.1L551.98 671.1" stroke="rgba(0, 0, 0, 0.05)" stroke-width="1.5"></path>
        <path d="M551.98 671.1L689.39 708.29" stroke="rgba(0, 0, 0, 0.05)" stroke-width="1.5"></path>
        <path d="M551.98 671.1L660.98 532.86" stroke="rgba(0, 0, 0, 0.05)" stroke-width="1.5"></path>
        <path d="M551.98 671.1L368.04 693.68" stroke="rgba(0, 0, 0, 0.05)" stroke-width="1.5"></path>
        <path d="M551.98 671.1L367.83 523.43" stroke="rgba(0, 0, 0, 0.05)" stroke-width="1.5"></path>
        <path d="M551.98 671.1L815.87 671.86" stroke="rgba(0, 0, 0, 0.05)" stroke-width="1.5"></path>
        <path d="M649.37 232.72L649.37 232.72" stroke="rgba(0, 0, 0, 0.05)" stroke-width="1.5"></path>
        <path d="M649.37 232.72L675.48 347.61" stroke="rgba(0, 0, 0, 0.05)" stroke-width="1.5"></path>
        <path d="M649.37 232.72L798.67 212.15" stroke="rgba(0, 0, 0, 0.05)" stroke-width="1.5"></path>
        <path d="M649.37 232.72L821.71 345.03" stroke="rgba(0, 0, 0, 0.05)" stroke-width="1.5"></path>
        <path d="M649.37 232.72L513.24 401.67" stroke="rgba(0, 0, 0, 0.05)" stroke-width="1.5"></path>
        <path d="M649.37 232.72L660.98 532.86" stroke="rgba(0, 0, 0, 0.05)" stroke-width="1.5"></path>
        <path d="M649.37 232.72L797.2 498.07" stroke="rgba(0, 0, 0, 0.05)" stroke-width="1.5"></path>
        <path d="M675.48 347.61L675.48 347.61" stroke="rgba(0, 0, 0, 0.05)" stroke-width="1.5"></path>
        <path d="M675.48 347.61L821.71 345.03" stroke="rgba(0, 0, 0, 0.05)" stroke-width="1.5"></path>
        <path d="M660.98 532.86L660.98 532.86" stroke="rgba(0, 0, 0, 0.05)" stroke-width="1.5"></path>
        <path d="M660.98 532.86L797.2 498.07" stroke="rgba(0, 0, 0, 0.05)" stroke-width="1.5"></path>
        <path d="M660.98 532.86L689.39 708.29" stroke="rgba(0, 0, 0, 0.05)" stroke-width="1.5"></path>
        <path d="M660.98 532.86L675.48 347.61" stroke="rgba(0, 0, 0, 0.05)" stroke-width="1.5"></path>
        <path d="M689.39 708.29L689.39 708.29" stroke="rgba(0, 0, 0, 0.05)" stroke-width="1.5"></path>
        <path d="M689.39 708.29L815.87 671.86" stroke="rgba(0, 0, 0, 0.05)" stroke-width="1.5"></path>
        <path d="M689.39 708.29L797.2 498.07" stroke="rgba(0, 0, 0, 0.05)" stroke-width="1.5"></path>
        <path d="M798.67 212.15L798.67 212.15" stroke="rgba(0, 0, 0, 0.05)" stroke-width="1.5"></path>
        <path d="M798.67 212.15L821.71 345.03" stroke="rgba(0, 0, 0, 0.05)" stroke-width="1.5"></path>
        <path d="M798.67 212.15L960.72 191.75" stroke="rgba(0, 0, 0, 0.05)" stroke-width="1.5"></path>
        <path d="M798.67 212.15L675.48 347.61" stroke="rgba(0, 0, 0, 0.05)" stroke-width="1.5"></path>
        <path d="M821.71 345.03L821.71 345.03" stroke="rgba(0, 0, 0, 0.05)" stroke-width="1.5"></path>
        <path d="M821.71 345.03L953.56 372.74" stroke="rgba(0, 0, 0, 0.05)" stroke-width="1.5"></path>
        <path d="M821.71 345.03L797.2 498.07" stroke="rgba(0, 0, 0, 0.05)" stroke-width="1.5"></path>
        <path d="M821.71 345.03L960.72 191.75" stroke="rgba(0, 0, 0, 0.05)" stroke-width="1.5"></path>
        <path d="M797.2 498.07L797.2 498.07" stroke="rgba(0, 0, 0, 0.05)" stroke-width="1.5"></path>
        <path d="M815.87 671.86L815.87 671.86" stroke="rgba(0, 0, 0, 0.05)" stroke-width="1.5"></path>
        <path d="M815.87 671.86L983.5 646.82" stroke="rgba(0, 0, 0, 0.05)" stroke-width="1.5"></path>
        <path d="M815.87 671.86L797.2 498.07" stroke="rgba(0, 0, 0, 0.05)" stroke-width="1.5"></path>
        <path d="M815.87 671.86L660.98 532.86" stroke="rgba(0, 0, 0, 0.05)" stroke-width="1.5"></path>
        <path d="M815.87 671.86L988.06 494.77" stroke="rgba(0, 0, 0, 0.05)" stroke-width="1.5"></path>
        <path d="M1011.67 85.34L1011.67 85.34" stroke="rgba(0, 0, 0, 0.05)" stroke-width="1.5"></path>
        <path d="M1011.67 85.34L1089.25 101.79" stroke="rgba(0, 0, 0, 0.05)" stroke-width="1.5"></path>
        <path d="M1011.67 85.34L960.72 191.75" stroke="rgba(0, 0, 0, 0.05)" stroke-width="1.5"></path>
        <path d="M960.72 191.75L960.72 191.75" stroke="rgba(0, 0, 0, 0.05)" stroke-width="1.5"></path>
        <path d="M960.72 191.75L1101.71 246.36" stroke="rgba(0, 0, 0, 0.05)" stroke-width="1.5"></path>
        <path d="M960.72 191.75L1089.25 101.79" stroke="rgba(0, 0, 0, 0.05)" stroke-width="1.5"></path>
        <path d="M953.56 372.74L953.56 372.74" stroke="rgba(0, 0, 0, 0.05)" stroke-width="1.5"></path>
        <path d="M953.56 372.74L988.06 494.77" stroke="rgba(0, 0, 0, 0.05)" stroke-width="1.5"></path>
        <path d="M953.56 372.74L1091.46 489.52" stroke="rgba(0, 0, 0, 0.05)" stroke-width="1.5"></path>
        <path d="M953.56 372.74L960.72 191.75" stroke="rgba(0, 0, 0, 0.05)" stroke-width="1.5"></path>
        <path d="M988.06 494.77L988.06 494.77" stroke="rgba(0, 0, 0, 0.05)" stroke-width="1.5"></path>
        <path d="M988.06 494.77L1091.46 489.52" stroke="rgba(0, 0, 0, 0.05)" stroke-width="1.5"></path>
        <path d="M988.06 494.77L983.5 646.82" stroke="rgba(0, 0, 0, 0.05)" stroke-width="1.5"></path>
        <path d="M983.5 646.82L983.5 646.82" stroke="rgba(0, 0, 0, 0.05)" stroke-width="1.5"></path>
        <path d="M983.5 646.82L1124.8 662.7" stroke="rgba(0, 0, 0, 0.05)" stroke-width="1.5"></path>
        <path d="M1137.13 -51.96L1137.13 -51.96" stroke="rgba(0, 0, 0, 0.05)" stroke-width="1.5"></path>
        <path d="M1137.13 -51.96L1089.25 101.79" stroke="rgba(0, 0, 0, 0.05)" stroke-width="1.5"></path>
        <path d="M1137.13 -51.96L1293.65 -100.09" stroke="rgba(0, 0, 0, 0.05)" stroke-width="1.5"></path>
        <path d="M1137.13 -51.96L1011.67 85.34" stroke="rgba(0, 0, 0, 0.05)" stroke-width="1.5"></path>
        <path d="M1137.13 -51.96L1305.45 51.12" stroke="rgba(0, 0, 0, 0.05)" stroke-width="1.5"></path>
        <path d="M1137.13 -51.96L1407.18 -92.26" stroke="rgba(0, 0, 0, 0.05)" stroke-width="1.5"></path>
        <path d="M1137.13 -51.96L1101.71 246.36" stroke="rgba(0, 0, 0, 0.05)" stroke-width="1.5"></path>
        <path d="M1089.25 101.79L1089.25 101.79" stroke="rgba(0, 0, 0, 0.05)" stroke-width="1.5"></path>
        <path d="M1089.25 101.79L1101.71 246.36" stroke="rgba(0, 0, 0, 0.05)" stroke-width="1.5"></path>
        <path d="M1101.71 246.36L1101.71 246.36" stroke="rgba(0, 0, 0, 0.05)" stroke-width="1.5"></path>
        <path d="M1101.71 246.36L1255.59 228.26" stroke="rgba(0, 0, 0, 0.05)" stroke-width="1.5"></path>
        <path d="M1091.46 489.52L1091.46 489.52" stroke="rgba(0, 0, 0, 0.05)" stroke-width="1.5"></path>
        <path d="M1091.46 489.52L1259.93 539.29" stroke="rgba(0, 0, 0, 0.05)" stroke-width="1.5"></path>
        <path d="M1124.8 662.7L1124.8 662.7" stroke="rgba(0, 0, 0, 0.05)" stroke-width="1.5"></path>
        <path d="M1124.8 662.7L1286.35 696.74" stroke="rgba(0, 0, 0, 0.05)" stroke-width="1.5"></path>
        <path d="M1124.8 662.7L1091.46 489.52" stroke="rgba(0, 0, 0, 0.05)" stroke-width="1.5"></path>
        <path d="M1124.8 662.7L1259.93 539.29" stroke="rgba(0, 0, 0, 0.05)" stroke-width="1.5"></path>
        <path d="M1293.65 -100.09L1293.65 -100.09" stroke="rgba(0, 0, 0, 0.05)" stroke-width="1.5"></path>
        <path d="M1293.65 -100.09L1407.18 -92.26" stroke="rgba(0, 0, 0, 0.05)" stroke-width="1.5"></path>
        <path d="M1293.65 -100.09L1305.45 51.12" stroke="rgba(0, 0, 0, 0.05)" stroke-width="1.5"></path>
        <path d="M1293.65 -100.09L1455.07 79.72" stroke="rgba(0, 0, 0, 0.05)" stroke-width="1.5"></path>
        <path d="M1293.65 -100.09L1549.08 -105.53" stroke="rgba(0, 0, 0, 0.05)" stroke-width="1.5"></path>
        <path d="M1305.45 51.12L1305.45 51.12" stroke="rgba(0, 0, 0, 0.05)" stroke-width="1.5"></path>
        <path d="M1305.45 51.12L1455.07 79.72" stroke="rgba(0, 0, 0, 0.05)" stroke-width="1.5"></path>
        <path d="M1255.59 228.26L1255.59 228.26" stroke="rgba(0, 0, 0, 0.05)" stroke-width="1.5"></path>
        <path d="M1255.59 228.26L1430.86 254.39" stroke="rgba(0, 0, 0, 0.05)" stroke-width="1.5"></path>
        <path d="M1255.59 228.26L1305.45 51.12" stroke="rgba(0, 0, 0, 0.05)" stroke-width="1.5"></path>
        <path d="M1255.59 228.26L1089.25 101.79" stroke="rgba(0, 0, 0, 0.05)" stroke-width="1.5"></path>
        <path d="M1255.59 228.26L1433.94 364.17" stroke="rgba(0, 0, 0, 0.05)" stroke-width="1.5"></path>
        <path d="M1255.59 228.26L1455.07 79.72" stroke="rgba(0, 0, 0, 0.05)" stroke-width="1.5"></path>
        <path d="M1259.93 539.29L1259.93 539.29" stroke="rgba(0, 0, 0, 0.05)" stroke-width="1.5"></path>
        <path d="M1259.93 539.29L1393.18 517.93" stroke="rgba(0, 0, 0, 0.05)" stroke-width="1.5"></path>
        <path d="M1259.93 539.29L1286.35 696.74" stroke="rgba(0, 0, 0, 0.05)" stroke-width="1.5"></path>
        <path d="M1286.35 696.74L1286.35 696.74" stroke="rgba(0, 0, 0, 0.05)" stroke-width="1.5"></path>
        <path d="M1286.35 696.74L1459.06 647.23" stroke="rgba(0, 0, 0, 0.05)" stroke-width="1.5"></path>
        <path d="M1286.35 696.74L1393.18 517.93" stroke="rgba(0, 0, 0, 0.05)" stroke-width="1.5"></path>
        <path d="M1286.35 696.74L1561.18 687.5" stroke="rgba(0, 0, 0, 0.05)" stroke-width="1.5"></path>
        <path d="M1286.35 696.74L1091.46 489.52" stroke="rgba(0, 0, 0, 0.05)" stroke-width="1.5"></path>
        <path d="M1407.18 -92.26L1407.18 -92.26" stroke="rgba(0, 0, 0, 0.05)" stroke-width="1.5"></path>
        <path d="M1407.18 -92.26L1549.08 -105.53" stroke="rgba(0, 0, 0, 0.05)" stroke-width="1.5"></path>
        <path d="M1455.07 79.72L1455.07 79.72" stroke="rgba(0, 0, 0, 0.05)" stroke-width="1.5"></path>
        <path d="M1455.07 79.72L1601.26 101.79" stroke="rgba(0, 0, 0, 0.05)" stroke-width="1.5"></path>
        <path d="M1455.07 79.72L1430.86 254.39" stroke="rgba(0, 0, 0, 0.05)" stroke-width="1.5"></path>
        <path d="M1455.07 79.72L1407.18 -92.26" stroke="rgba(0, 0, 0, 0.05)" stroke-width="1.5"></path>
        <path d="M1455.07 79.72L1593.96 220.19" stroke="rgba(0, 0, 0, 0.05)" stroke-width="1.5"></path>
        <path d="M1455.07 79.72L1549.08 -105.53" stroke="rgba(0, 0, 0, 0.05)" stroke-width="1.5"></path>
        <path d="M1430.86 254.39L1430.86 254.39" stroke="rgba(0, 0, 0, 0.05)" stroke-width="1.5"></path>
        <path d="M1430.86 254.39L1433.94 364.17" stroke="rgba(0, 0, 0, 0.05)" stroke-width="1.5"></path>
        <path d="M1430.86 254.39L1593.96 220.19" stroke="rgba(0, 0, 0, 0.05)" stroke-width="1.5"></path>
        <path d="M1430.86 254.39L1574.89 407.93" stroke="rgba(0, 0, 0, 0.05)" stroke-width="1.5"></path>
        <path d="M1433.94 364.17L1433.94 364.17" stroke="rgba(0, 0, 0, 0.05)" stroke-width="1.5"></path>
        <path d="M1433.94 364.17L1574.89 407.93" stroke="rgba(0, 0, 0, 0.05)" stroke-width="1.5"></path>
        <path d="M1433.94 364.17L1393.18 517.93" stroke="rgba(0, 0, 0, 0.05)" stroke-width="1.5"></path>
        <path d="M1433.94 364.17L1593.96 220.19" stroke="rgba(0, 0, 0, 0.05)" stroke-width="1.5"></path>
        <path d="M1433.94 364.17L1604.54 539.55" stroke="rgba(0, 0, 0, 0.05)" stroke-width="1.5"></path>
        <path d="M1393.18 517.93L1393.18 517.93" stroke="rgba(0, 0, 0, 0.05)" stroke-width="1.5"></path>
        <path d="M1393.18 517.93L1459.06 647.23" stroke="rgba(0, 0, 0, 0.05)" stroke-width="1.5"></path>
        <path d="M1393.18 517.93L1574.89 407.93" stroke="rgba(0, 0, 0, 0.05)" stroke-width="1.5"></path>
        <path d="M1459.06 647.23L1459.06 647.23" stroke="rgba(0, 0, 0, 0.05)" stroke-width="1.5"></path>
        <path d="M1459.06 647.23L1561.18 687.5" stroke="rgba(0, 0, 0, 0.05)" stroke-width="1.5"></path>
        <path d="M1549.08 -105.53L1549.08 -105.53" stroke="rgba(0, 0, 0, 0.05)" stroke-width="1.5"></path>
        <path d="M1601.26 101.79L1601.26 101.79" stroke="rgba(0, 0, 0, 0.05)" stroke-width="1.5"></path>
        <path d="M1601.26 101.79L1593.96 220.19" stroke="rgba(0, 0, 0, 0.05)" stroke-width="1.5"></path>
        <path d="M1601.26 101.79L1549.08 -105.53" stroke="rgba(0, 0, 0, 0.05)" stroke-width="1.5"></path>
        <path d="M1601.26 101.79L1430.86 254.39" stroke="rgba(0, 0, 0, 0.05)" stroke-width="1.5"></path>
        <path d="M1601.26 101.79L1407.18 -92.26" stroke="rgba(0, 0, 0, 0.05)" stroke-width="1.5"></path>
        <path d="M1601.26 101.79L1305.45 51.12" stroke="rgba(0, 0, 0, 0.05)" stroke-width="1.5"></path>
        <path d="M1593.96 220.19L1593.96 220.19" stroke="rgba(0, 0, 0, 0.05)" stroke-width="1.5"></path>
        <path d="M1574.89 407.93L1574.89 407.93" stroke="rgba(0, 0, 0, 0.05)" stroke-width="1.5"></path>
        <path d="M1574.89 407.93L1604.54 539.55" stroke="rgba(0, 0, 0, 0.05)" stroke-width="1.5"></path>
        <path d="M1574.89 407.93L1593.96 220.19" stroke="rgba(0, 0, 0, 0.05)" stroke-width="1.5"></path>
        <path d="M1574.89 407.93L1459.06 647.23" stroke="rgba(0, 0, 0, 0.05)" stroke-width="1.5"></path>
        <path d="M1604.54 539.55L1604.54 539.55" stroke="rgba(0, 0, 0, 0.05)" stroke-width="1.5"></path>
        <path d="M1604.54 539.55L1561.18 687.5" stroke="rgba(0, 0, 0, 0.05)" stroke-width="1.5"></path>
        <path d="M1561.18 687.5L1561.18 687.5" stroke="rgba(0, 0, 0, 0.05)" stroke-width="1.5"></path>
        <circle r="5" cx="-57.3" cy="402.09" fill="rgba(0, 0, 0, 0.05)"></circle>
        <circle r="5" cx="-92.97" cy="488.01" fill="rgba(0, 0, 0, 0.05)"></circle>
        <circle r="5" cx="-37.82" cy="704.16" fill="rgba(0, 0, 0, 0.05)"></circle>
        <circle r="5" cx="71.33" cy="365.48" fill="rgba(0, 0, 0, 0.05)"></circle>
        <circle r="5" cx="102.79" cy="539.55" fill="rgba(0, 0, 0, 0.05)"></circle>
        <circle r="5" cx="83.93" cy="647.38" fill="rgba(0, 0, 0, 0.05)"></circle>
        <circle r="5" cx="208.08" cy="351.77" fill="rgba(0, 0, 0, 0.05)"></circle>
        <circle r="5" cx="246.78" cy="511.56" fill="rgba(0, 0, 0, 0.05)"></circle>
        <circle r="5" cx="252.67" cy="666.67" fill="rgba(0, 0, 0, 0.05)"></circle>
        <circle r="5" cx="337.85" cy="361.95" fill="rgba(0, 0, 0, 0.05)"></circle>
        <circle r="5" cx="367.83" cy="523.43" fill="rgba(0, 0, 0, 0.05)"></circle>
        <circle r="5" cx="368.04" cy="693.68" fill="rgba(0, 0, 0, 0.05)"></circle>
        <circle r="5" cx="513.24" cy="401.67" fill="rgba(0, 0, 0, 0.05)"></circle>
        <circle r="5" cx="515.17" cy="521.38" fill="rgba(0, 0, 0, 0.05)"></circle>
        <circle r="5" cx="551.98" cy="671.1" fill="rgba(0, 0, 0, 0.05)"></circle>
        <circle r="5" cx="649.37" cy="232.72" fill="rgba(0, 0, 0, 0.05)"></circle>
        <circle r="5" cx="675.48" cy="347.61" fill="rgba(0, 0, 0, 0.05)"></circle>
        <circle r="5" cx="660.98" cy="532.86" fill="rgba(0, 0, 0, 0.05)"></circle>
        <circle r="5" cx="689.39" cy="708.29" fill="rgba(0, 0, 0, 0.05)"></circle>
        <circle r="5" cx="798.67" cy="212.15" fill="rgba(0, 0, 0, 0.05)"></circle>
        <circle r="5" cx="821.71" cy="345.03" fill="rgba(0, 0, 0, 0.05)"></circle>
        <circle r="5" cx="797.2" cy="498.07" fill="rgba(0, 0, 0, 0.05)"></circle>
        <circle r="5" cx="815.87" cy="671.86" fill="rgba(0, 0, 0, 0.05)"></circle>
        <circle r="5" cx="1011.67" cy="85.34" fill="rgba(0, 0, 0, 0.05)"></circle>
        <circle r="5" cx="960.72" cy="191.75" fill="rgba(0, 0, 0, 0.05)"></circle>
        <circle r="5" cx="953.56" cy="372.74" fill="rgba(0, 0, 0, 0.05)"></circle>
        <circle r="5" cx="988.06" cy="494.77" fill="rgba(0, 0, 0, 0.05)"></circle>
        <circle r="5" cx="983.5" cy="646.82" fill="rgba(0, 0, 0, 0.05)"></circle>
        <circle r="5" cx="1137.13" cy="-51.96" fill="rgba(0, 0, 0, 0.05)"></circle>
        <circle r="5" cx="1089.25" cy="101.79" fill="rgba(0, 0, 0, 0.05)"></circle>
        <circle r="5" cx="1101.71" cy="246.36" fill="rgba(0, 0, 0, 0.05)"></circle>
        <circle r="5" cx="1091.46" cy="489.52" fill="rgba(0, 0, 0, 0.05)"></circle>
        <circle r="5" cx="1124.8" cy="662.7" fill="rgba(0, 0, 0, 0.05)"></circle>
        <circle r="5" cx="1293.65" cy="-100.09" fill="rgba(0, 0, 0, 0.05)"></circle>
        <circle r="5" cx="1305.45" cy="51.12" fill="rgba(0, 0, 0, 0.05)"></circle>
        <circle r="5" cx="1255.59" cy="228.26" fill="rgba(0, 0, 0, 0.05)"></circle>
        <circle r="5" cx="1259.93" cy="539.29" fill="rgba(0, 0, 0, 0.05)"></circle>
        <circle r="5" cx="1286.35" cy="696.74" fill="rgba(0, 0, 0, 0.05)"></circle>
        <circle r="5" cx="1407.18" cy="-92.26" fill="rgba(0, 0, 0, 0.05)"></circle>
        <circle r="5" cx="1455.07" cy="79.72" fill="rgba(0, 0, 0, 0.05)"></circle>
        <circle r="5" cx="1430.86" cy="254.39" fill="rgba(0, 0, 0, 0.05)"></circle>
        <circle r="5" cx="1433.94" cy="364.17" fill="rgba(0, 0, 0, 0.05)"></circle>
        <circle r="5" cx="1393.18" cy="517.93" fill="rgba(0, 0, 0, 0.05)"></circle>
        <circle r="5" cx="1459.06" cy="647.23" fill="rgba(0, 0, 0, 0.05)"></circle>
        <circle r="5" cx="1549.08" cy="-105.53" fill="rgba(0, 0, 0, 0.05)"></circle>
        <circle r="5" cx="1601.26" cy="101.79" fill="rgba(0, 0, 0, 0.05)"></circle>
        <circle r="5" cx="1593.96" cy="220.19" fill="rgba(0, 0, 0, 0.05)"></circle>
        <circle r="5" cx="1574.89" cy="407.93" fill="rgba(0, 0, 0, 0.05)"></circle>
        <circle r="5" cx="1604.54" cy="539.55" fill="rgba(0, 0, 0, 0.05)"></circle>
        <circle r="5" cx="1561.18" cy="687.5" fill="rgba(0, 0, 0, 0.05)"></circle>
        <path d="M-69.52 696.77L-69.52 696.77" stroke="hsla(0, 0%, 0%, 0.07)" stroke-width="1.5"></path>
        <path d="M-69.52 696.77L56.57 685.4" stroke="hsla(0, 0%, 0%, 0.07)" stroke-width="1.5"></path>
        <path d="M-69.52 696.77L-43.94 525.84" stroke="hsla(0, 0%, 0%, 0.07)" stroke-width="1.5"></path>
        <path d="M-69.52 696.77L71.25 511.88" stroke="hsla(0, 0%, 0%, 0.07)" stroke-width="1.5"></path>
        <path d="M-69.52 696.77L225.64 669.41" stroke="hsla(0, 0%, 0%, 0.07)" stroke-width="1.5"></path>
        <path d="M71.25 511.88L71.25 511.88" stroke="hsla(0, 0%, 0%, 0.07)" stroke-width="1.5"></path>
        <path d="M71.25 511.88L-43.94 525.84" stroke="hsla(0, 0%, 0%, 0.07)" stroke-width="1.5"></path>
        <path d="M71.25 511.88L223.89 539.02" stroke="hsla(0, 0%, 0%, 0.07)" stroke-width="1.5"></path>
        <path d="M71.25 511.88L56.57 685.4" stroke="hsla(0, 0%, 0%, 0.07)" stroke-width="1.5"></path>
        <path d="M71.25 511.88L225.64 669.41" stroke="hsla(0, 0%, 0%, 0.07)" stroke-width="1.5"></path>
        <path d="M56.57 685.4L56.57 685.4" stroke="hsla(0, 0%, 0%, 0.07)" stroke-width="1.5"></path>
        <path d="M223.89 539.02L223.89 539.02" stroke="hsla(0, 0%, 0%, 0.07)" stroke-width="1.5"></path>
        <path d="M223.89 539.02L225.64 669.41" stroke="hsla(0, 0%, 0%, 0.07)" stroke-width="1.5"></path>
        <path d="M223.89 539.02L365.83 501.39" stroke="hsla(0, 0%, 0%, 0.07)" stroke-width="1.5"></path>
        <path d="M223.89 539.02L362.14 667.43" stroke="hsla(0, 0%, 0%, 0.07)" stroke-width="1.5"></path>
        <path d="M223.89 539.02L56.57 685.4" stroke="hsla(0, 0%, 0%, 0.07)" stroke-width="1.5"></path>
        <path d="M945.8 491.61L945.8 491.61" stroke="hsla(0, 0%, 0%, 0.07)" stroke-width="1.5"></path>
        <path d="M945.8 491.61L850.07 529.95" stroke="hsla(0, 0%, 0%, 0.07)" stroke-width="1.5"></path>
        <path d="M945.8 491.61L859.56 400.18" stroke="hsla(0, 0%, 0%, 0.07)" stroke-width="1.5"></path>
        <path d="M945.8 491.61L1088.74 529.58" stroke="hsla(0, 0%, 0%, 0.07)" stroke-width="1.5"></path>
        <path d="M945.8 491.61L959.63 339.8" stroke="hsla(0, 0%, 0%, 0.07)" stroke-width="1.5"></path>
        <path d="M1148.05 94.64L1148.05 94.64" stroke="hsla(0, 0%, 0%, 0.07)" stroke-width="1.5"></path>
        <path d="M1148.05 94.64L1238.08 48.85" stroke="hsla(0, 0%, 0%, 0.07)" stroke-width="1.5"></path>
        <path d="M1148.05 94.64L1143.13 212.01" stroke="hsla(0, 0%, 0%, 0.07)" stroke-width="1.5"></path>
        <path d="M1148.05 94.64L1293.97 230.01" stroke="hsla(0, 0%, 0%, 0.07)" stroke-width="1.5"></path>
        <path d="M1096.11 673.47L1096.11 673.47" stroke="hsla(0, 0%, 0%, 0.07)" stroke-width="1.5"></path>
        <path d="M1096.11 673.47L960.14 691.08" stroke="hsla(0, 0%, 0%, 0.07)" stroke-width="1.5"></path>
        <path d="M1096.11 673.47L1088.74 529.58" stroke="hsla(0, 0%, 0%, 0.07)" stroke-width="1.5"></path>
        <path d="M1096.11 673.47L1304.89 645.72" stroke="hsla(0, 0%, 0%, 0.07)" stroke-width="1.5"></path>
        <path d="M1096.11 673.47L945.8 491.61" stroke="hsla(0, 0%, 0%, 0.07)" stroke-width="1.5"></path>
        <path d="M1390.18 235.61L1390.18 235.61" stroke="hsla(0, 0%, 0%, 0.07)" stroke-width="1.5"></path>
        <path d="M1390.18 235.61L1293.97 230.01" stroke="hsla(0, 0%, 0%, 0.07)" stroke-width="1.5"></path>
        <path d="M1390.18 235.61L1421.15 356.75" stroke="hsla(0, 0%, 0%, 0.07)" stroke-width="1.5"></path>
        <path d="M1390.18 235.61L1547.78 259.54" stroke="hsla(0, 0%, 0%, 0.07)" stroke-width="1.5"></path>
        <path d="M1390.18 235.61L1409.46 42.17" stroke="hsla(0, 0%, 0%, 0.07)" stroke-width="1.5"></path>
        <path d="M1390.18 235.61L1560.03 339.23" stroke="hsla(0, 0%, 0%, 0.07)" stroke-width="1.5"></path>
        <path d="M-43.94 525.84L-43.94 525.84" stroke="hsla(0, 0%, 0%, 0.07)" stroke-width="1.5"></path>
        <path d="M-43.94 525.84L56.57 685.4" stroke="hsla(0, 0%, 0%, 0.07)" stroke-width="1.5"></path>
        <path d="M-43.94 525.84L223.89 539.02" stroke="hsla(0, 0%, 0%, 0.07)" stroke-width="1.5"></path>
        <path d="M-43.94 525.84L225.64 669.41" stroke="hsla(0, 0%, 0%, 0.07)" stroke-width="1.5"></path>
        <path d="M-43.94 525.84L365.83 501.39" stroke="hsla(0, 0%, 0%, 0.07)" stroke-width="1.5"></path>
        <path d="M225.64 669.41L225.64 669.41" stroke="hsla(0, 0%, 0%, 0.07)" stroke-width="1.5"></path>
        <path d="M225.64 669.41L362.14 667.43" stroke="hsla(0, 0%, 0%, 0.07)" stroke-width="1.5"></path>
        <path d="M225.64 669.41L56.57 685.4" stroke="hsla(0, 0%, 0%, 0.07)" stroke-width="1.5"></path>
        <path d="M225.64 669.41L365.83 501.39" stroke="hsla(0, 0%, 0%, 0.07)" stroke-width="1.5"></path>
        <path d="M365.83 501.39L365.83 501.39" stroke="hsla(0, 0%, 0%, 0.07)" stroke-width="1.5"></path>
        <path d="M365.83 501.39L530.39 502.65" stroke="hsla(0, 0%, 0%, 0.07)" stroke-width="1.5"></path>
        <path d="M362.14 667.43L362.14 667.43" stroke="hsla(0, 0%, 0%, 0.07)" stroke-width="1.5"></path>
        <path d="M362.14 667.43L506.75 712.44" stroke="hsla(0, 0%, 0%, 0.07)" stroke-width="1.5"></path>
        <path d="M362.14 667.43L365.83 501.39" stroke="hsla(0, 0%, 0%, 0.07)" stroke-width="1.5"></path>
        <path d="M530.39 502.65L530.39 502.65" stroke="hsla(0, 0%, 0%, 0.07)" stroke-width="1.5"></path>
        <path d="M530.39 502.65L694.03 529.05" stroke="hsla(0, 0%, 0%, 0.07)" stroke-width="1.5"></path>
        <path d="M530.39 502.65L648.67 380.81" stroke="hsla(0, 0%, 0%, 0.07)" stroke-width="1.5"></path>
        <path d="M530.39 502.65L506.75 712.44" stroke="hsla(0, 0%, 0%, 0.07)" stroke-width="1.5"></path>
        <path d="M530.39 502.65L362.14 667.43" stroke="hsla(0, 0%, 0%, 0.07)" stroke-width="1.5"></path>
        <path d="M530.39 502.65L709.85 692.26" stroke="hsla(0, 0%, 0%, 0.07)" stroke-width="1.5"></path>
        <path d="M506.75 712.44L506.75 712.44" stroke="hsla(0, 0%, 0%, 0.07)" stroke-width="1.5"></path>
        <path d="M506.75 712.44L709.85 692.26" stroke="hsla(0, 0%, 0%, 0.07)" stroke-width="1.5"></path>
        <path d="M506.75 712.44L365.83 501.39" stroke="hsla(0, 0%, 0%, 0.07)" stroke-width="1.5"></path>
        <path d="M506.75 712.44L694.03 529.05" stroke="hsla(0, 0%, 0%, 0.07)" stroke-width="1.5"></path>
        <path d="M648.67 380.81L648.67 380.81" stroke="hsla(0, 0%, 0%, 0.07)" stroke-width="1.5"></path>
        <path d="M648.67 380.81L694.03 529.05" stroke="hsla(0, 0%, 0%, 0.07)" stroke-width="1.5"></path>
        <path d="M648.67 380.81L859.56 400.18" stroke="hsla(0, 0%, 0%, 0.07)" stroke-width="1.5"></path>
        <path d="M694.03 529.05L694.03 529.05" stroke="hsla(0, 0%, 0%, 0.07)" stroke-width="1.5"></path>
        <path d="M694.03 529.05L850.07 529.95" stroke="hsla(0, 0%, 0%, 0.07)" stroke-width="1.5"></path>
        <path d="M709.85 692.26L709.85 692.26" stroke="hsla(0, 0%, 0%, 0.07)" stroke-width="1.5"></path>
        <path d="M709.85 692.26L694.03 529.05" stroke="hsla(0, 0%, 0%, 0.07)" stroke-width="1.5"></path>
        <path d="M709.85 692.26L850.07 529.95" stroke="hsla(0, 0%, 0%, 0.07)" stroke-width="1.5"></path>
        <path d="M709.85 692.26L960.14 691.08" stroke="hsla(0, 0%, 0%, 0.07)" stroke-width="1.5"></path>
        <path d="M859.56 400.18L859.56 400.18" stroke="hsla(0, 0%, 0%, 0.07)" stroke-width="1.5"></path>
        <path d="M859.56 400.18L959.63 339.8" stroke="hsla(0, 0%, 0%, 0.07)" stroke-width="1.5"></path>
        <path d="M859.56 400.18L850.07 529.95" stroke="hsla(0, 0%, 0%, 0.07)" stroke-width="1.5"></path>
        <path d="M850.07 529.95L850.07 529.95" stroke="hsla(0, 0%, 0%, 0.07)" stroke-width="1.5"></path>
        <path d="M959.63 339.8L959.63 339.8" stroke="hsla(0, 0%, 0%, 0.07)" stroke-width="1.5"></path>
        <path d="M959.63 339.8L1136.28 363.4" stroke="hsla(0, 0%, 0%, 0.07)" stroke-width="1.5"></path>
        <path d="M959.63 339.8L850.07 529.95" stroke="hsla(0, 0%, 0%, 0.07)" stroke-width="1.5"></path>
        <path d="M960.14 691.08L960.14 691.08" stroke="hsla(0, 0%, 0%, 0.07)" stroke-width="1.5"></path>
        <path d="M1143.13 212.01L1143.13 212.01" stroke="hsla(0, 0%, 0%, 0.07)" stroke-width="1.5"></path>
        <path d="M1143.13 212.01L1136.28 363.4" stroke="hsla(0, 0%, 0%, 0.07)" stroke-width="1.5"></path>
        <path d="M1143.13 212.01L1293.97 230.01" stroke="hsla(0, 0%, 0%, 0.07)" stroke-width="1.5"></path>
        <path d="M1143.13 212.01L1238.08 48.85" stroke="hsla(0, 0%, 0%, 0.07)" stroke-width="1.5"></path>
        <path d="M1136.28 363.4L1136.28 363.4" stroke="hsla(0, 0%, 0%, 0.07)" stroke-width="1.5"></path>
        <path d="M1136.28 363.4L1238.5 411.84" stroke="hsla(0, 0%, 0%, 0.07)" stroke-width="1.5"></path>
        <path d="M1136.28 363.4L1088.74 529.58" stroke="hsla(0, 0%, 0%, 0.07)" stroke-width="1.5"></path>
        <path d="M1088.74 529.58L1088.74 529.58" stroke="hsla(0, 0%, 0%, 0.07)" stroke-width="1.5"></path>
        <path d="M1088.74 529.58L1238.5 411.84" stroke="hsla(0, 0%, 0%, 0.07)" stroke-width="1.5"></path>
        <path d="M1088.74 529.58L960.14 691.08" stroke="hsla(0, 0%, 0%, 0.07)" stroke-width="1.5"></path>
        <path d="M1088.74 529.58L1293.76 491.38" stroke="hsla(0, 0%, 0%, 0.07)" stroke-width="1.5"></path>
        <path d="M1294.17 -60.47L1294.17 -60.47" stroke="hsla(0, 0%, 0%, 0.07)" stroke-width="1.5"></path>
        <path d="M1294.17 -60.47L1400.92 -42.47" stroke="hsla(0, 0%, 0%, 0.07)" stroke-width="1.5"></path>
        <path d="M1294.17 -60.47L1238.08 48.85" stroke="hsla(0, 0%, 0%, 0.07)" stroke-width="1.5"></path>
        <path d="M1294.17 -60.47L1409.46 42.17" stroke="hsla(0, 0%, 0%, 0.07)" stroke-width="1.5"></path>
        <path d="M1294.17 -60.47L1148.05 94.64" stroke="hsla(0, 0%, 0%, 0.07)" stroke-width="1.5"></path>
        <path d="M1238.08 48.85L1238.08 48.85" stroke="hsla(0, 0%, 0%, 0.07)" stroke-width="1.5"></path>
        <path d="M1293.97 230.01L1293.97 230.01" stroke="hsla(0, 0%, 0%, 0.07)" stroke-width="1.5"></path>
        <path d="M1293.97 230.01L1421.15 356.75" stroke="hsla(0, 0%, 0%, 0.07)" stroke-width="1.5"></path>
        <path d="M1293.97 230.01L1238.08 48.85" stroke="hsla(0, 0%, 0%, 0.07)" stroke-width="1.5"></path>
        <path d="M1293.97 230.01L1238.5 411.84" stroke="hsla(0, 0%, 0%, 0.07)" stroke-width="1.5"></path>
        <path d="M1238.5 411.84L1238.5 411.84" stroke="hsla(0, 0%, 0%, 0.07)" stroke-width="1.5"></path>
        <path d="M1238.5 411.84L1293.76 491.38" stroke="hsla(0, 0%, 0%, 0.07)" stroke-width="1.5"></path>
        <path d="M1293.76 491.38L1293.76 491.38" stroke="hsla(0, 0%, 0%, 0.07)" stroke-width="1.5"></path>
        <path d="M1293.76 491.38L1437.82 547.1" stroke="hsla(0, 0%, 0%, 0.07)" stroke-width="1.5"></path>
        <path d="M1293.76 491.38L1304.89 645.72" stroke="hsla(0, 0%, 0%, 0.07)" stroke-width="1.5"></path>
        <path d="M1304.89 645.72L1304.89 645.72" stroke="hsla(0, 0%, 0%, 0.07)" stroke-width="1.5"></path>
        <path d="M1304.89 645.72L1427.98 701" stroke="hsla(0, 0%, 0%, 0.07)" stroke-width="1.5"></path>
        <path d="M1400.92 -42.47L1400.92 -42.47" stroke="hsla(0, 0%, 0%, 0.07)" stroke-width="1.5"></path>
        <path d="M1400.92 -42.47L1409.46 42.17" stroke="hsla(0, 0%, 0%, 0.07)" stroke-width="1.5"></path>
        <path d="M1409.46 42.17L1409.46 42.17" stroke="hsla(0, 0%, 0%, 0.07)" stroke-width="1.5"></path>
        <path d="M1421.15 356.75L1421.15 356.75" stroke="hsla(0, 0%, 0%, 0.07)" stroke-width="1.5"></path>
        <path d="M1421.15 356.75L1560.03 339.23" stroke="hsla(0, 0%, 0%, 0.07)" stroke-width="1.5"></path>
        <path d="M1421.15 356.75L1547.78 259.54" stroke="hsla(0, 0%, 0%, 0.07)" stroke-width="1.5"></path>
        <path d="M1437.82 547.1L1437.82 547.1" stroke="hsla(0, 0%, 0%, 0.07)" stroke-width="1.5"></path>
        <path d="M1437.82 547.1L1427.98 701" stroke="hsla(0, 0%, 0%, 0.07)" stroke-width="1.5"></path>
        <path d="M1427.98 701L1427.98 701" stroke="hsla(0, 0%, 0%, 0.07)" stroke-width="1.5"></path>
        <path d="M1427.98 701L1591.79 701.8" stroke="hsla(0, 0%, 0%, 0.07)" stroke-width="1.5"></path>
        <path d="M1427.98 701L1592.75 524.86" stroke="hsla(0, 0%, 0%, 0.07)" stroke-width="1.5"></path>
        <path d="M1427.98 701L1293.76 491.38" stroke="hsla(0, 0%, 0%, 0.07)" stroke-width="1.5"></path>
        <path d="M1427.98 701L1096.11 673.47" stroke="hsla(0, 0%, 0%, 0.07)" stroke-width="1.5"></path>
        <path d="M1582.38 -37.55L1582.38 -37.55" stroke="hsla(0, 0%, 0%, 0.07)" stroke-width="1.5"></path>
        <path d="M1582.38 -37.55L1606.66 103.34" stroke="hsla(0, 0%, 0%, 0.07)" stroke-width="1.5"></path>
        <path d="M1606.66 103.34L1606.66 103.34" stroke="hsla(0, 0%, 0%, 0.07)" stroke-width="1.5"></path>
        <path d="M1606.66 103.34L1547.78 259.54" stroke="hsla(0, 0%, 0%, 0.07)" stroke-width="1.5"></path>
        <path d="M1606.66 103.34L1409.46 42.17" stroke="hsla(0, 0%, 0%, 0.07)" stroke-width="1.5"></path>
        <path d="M1547.78 259.54L1547.78 259.54" stroke="hsla(0, 0%, 0%, 0.07)" stroke-width="1.5"></path>
        <path d="M1547.78 259.54L1560.03 339.23" stroke="hsla(0, 0%, 0%, 0.07)" stroke-width="1.5"></path>
        <path d="M1547.78 259.54L1293.97 230.01" stroke="hsla(0, 0%, 0%, 0.07)" stroke-width="1.5"></path>
        <path d="M1560.03 339.23L1560.03 339.23" stroke="hsla(0, 0%, 0%, 0.07)" stroke-width="1.5"></path>
        <path d="M1560.03 339.23L1592.75 524.86" stroke="hsla(0, 0%, 0%, 0.07)" stroke-width="1.5"></path>
        <path d="M1560.03 339.23L1606.66 103.34" stroke="hsla(0, 0%, 0%, 0.07)" stroke-width="1.5"></path>
        <path d="M1592.75 524.86L1592.75 524.86" stroke="hsla(0, 0%, 0%, 0.07)" stroke-width="1.5"></path>
        <path d="M1592.75 524.86L1437.82 547.1" stroke="hsla(0, 0%, 0%, 0.07)" stroke-width="1.5"></path>
        <path d="M1592.75 524.86L1591.79 701.8" stroke="hsla(0, 0%, 0%, 0.07)" stroke-width="1.5"></path>
        <path d="M1592.75 524.86L1421.15 356.75" stroke="hsla(0, 0%, 0%, 0.07)" stroke-width="1.5"></path>
        <path d="M1592.75 524.86L1547.78 259.54" stroke="hsla(0, 0%, 0%, 0.07)" stroke-width="1.5"></path>
        <path d="M1591.79 701.8L1591.79 701.8" stroke="hsla(0, 0%, 0%, 0.07)" stroke-width="1.5"></path>
        <path d="M1591.79 701.8L1437.82 547.1" stroke="hsla(0, 0%, 0%, 0.07)" stroke-width="1.5"></path>
        <path d="M1591.79 701.8L1304.89 645.72" stroke="hsla(0, 0%, 0%, 0.07)" stroke-width="1.5"></path>
        <circle r="25" cx="-69.52" cy="696.77" fill="url(&quot;#SvgjsRadialGradient1015&quot;)"></circle>
        <circle r="25" cx="71.25" cy="511.88" fill="url(&quot;#SvgjsRadialGradient1015&quot;)"></circle>
        <circle r="25" cx="56.57" cy="685.4" fill="url(&quot;#SvgjsRadialGradient1015&quot;)"></circle>
        <circle r="25" cx="223.89" cy="539.02" fill="url(&quot;#SvgjsRadialGradient1015&quot;)"></circle>
        <circle r="25" cx="945.8" cy="491.61" fill="url(&quot;#SvgjsRadialGradient1015&quot;)"></circle>
        <circle r="25" cx="1148.05" cy="94.64" fill="url(&quot;#SvgjsRadialGradient1015&quot;)"></circle>
        <circle r="25" cx="1096.11" cy="673.47" fill="url(&quot;#SvgjsRadialGradient1015&quot;)"></circle>
        <circle r="25" cx="1390.18" cy="235.61" fill="url(&quot;#SvgjsRadialGradient1015&quot;)"></circle>
        <circle r="5" cx="-43.94" cy="525.84" fill="rgba(246, 246, 246, 0.535)"></circle>
        <circle r="5" cx="225.64" cy="669.41" fill="rgba(246, 246, 246, 0.535)"></circle>
        <circle r="5" cx="365.83" cy="501.39" fill="rgba(246, 246, 246, 0.535)"></circle>
        <circle r="5" cx="362.14" cy="667.43" fill="rgba(246, 246, 246, 0.535)"></circle>
        <circle r="5" cx="530.39" cy="502.65" fill="rgba(246, 246, 246, 0.535)"></circle>
        <circle r="5" cx="506.75" cy="712.44" fill="rgba(246, 246, 246, 0.535)"></circle>
        <circle r="5" cx="648.67" cy="380.81" fill="rgba(246, 246, 246, 0.535)"></circle>
        <circle r="5" cx="694.03" cy="529.05" fill="rgba(246, 246, 246, 0.535)"></circle>
        <circle r="5" cx="709.85" cy="692.26" fill="rgba(246, 246, 246, 0.535)"></circle>
        <circle r="5" cx="859.56" cy="400.18" fill="rgba(246, 246, 246, 0.535)"></circle>
        <circle r="5" cx="850.07" cy="529.95" fill="rgba(246, 246, 246, 0.535)"></circle>
        <circle r="5" cx="959.63" cy="339.8" fill="rgba(246, 246, 246, 0.535)"></circle>
        <circle r="5" cx="960.14" cy="691.08" fill="rgba(246, 246, 246, 0.535)"></circle>
        <circle r="5" cx="1143.13" cy="212.01" fill="rgba(246, 246, 246, 0.535)"></circle>
        <circle r="5" cx="1136.28" cy="363.4" fill="rgba(246, 246, 246, 0.535)"></circle>
        <circle r="5" cx="1088.74" cy="529.58" fill="rgba(246, 246, 246, 0.535)"></circle>
        <circle r="5" cx="1294.17" cy="-60.47" fill="rgba(246, 246, 246, 0.535)"></circle>
        <circle r="5" cx="1238.08" cy="48.85" fill="rgba(246, 246, 246, 0.535)"></circle>
        <circle r="5" cx="1293.97" cy="230.01" fill="rgba(246, 246, 246, 0.535)"></circle>
        <circle r="5" cx="1238.5" cy="411.84" fill="rgba(246, 246, 246, 0.535)"></circle>
        <circle r="5" cx="1293.76" cy="491.38" fill="rgba(246, 246, 246, 0.535)"></circle>
        <circle r="5" cx="1304.89" cy="645.72" fill="rgba(246, 246, 246, 0.535)"></circle>
        <circle r="5" cx="1400.92" cy="-42.47" fill="rgba(246, 246, 246, 0.535)"></circle>
        <circle r="5" cx="1409.46" cy="42.17" fill="rgba(246, 246, 246, 0.535)"></circle>
        <circle r="5" cx="1421.15" cy="356.75" fill="rgba(246, 246, 246, 0.535)"></circle>
        <circle r="5" cx="1437.82" cy="547.1" fill="rgba(246, 246, 246, 0.535)"></circle>
        <circle r="5" cx="1427.98" cy="701" fill="rgba(246, 246, 246, 0.535)"></circle>
        <circle r="5" cx="1582.38" cy="-37.55" fill="rgba(246, 246, 246, 0.535)"></circle>
        <circle r="5" cx="1606.66" cy="103.34" fill="rgba(246, 246, 246, 0.535)"></circle>
        <circle r="5" cx="1547.78" cy="259.54" fill="rgba(246, 246, 246, 0.535)"></circle>
        <circle r="5" cx="1560.03" cy="339.23" fill="rgba(246, 246, 246, 0.535)"></circle>
        <circle r="5" cx="1592.75" cy="524.86" fill="rgba(246, 246, 246, 0.535)"></circle>
        <circle r="5" cx="1591.79" cy="701.8" fill="rgba(246, 246, 246, 0.535)"></circle>
    </g>
    <defs>
        <mask id="SvgjsMask1014">
            <rect width="1440" height="560" fill="#ffffff"></rect>
        </mask>
        <radialGradient id="SvgjsRadialGradient1015">
            <stop stop-color="#ffffff" offset="0.1"></stop>
            <stop stop-color="rgba(0, 0, 0, 0.07)" offset="0.2"></stop>
            <stop stop-color="rgba(0, 0, 0, 0)" offset="1"></stop>
        </radialGradient>
    </defs>
</svg>