<svg xmlns="http://www.w3.org/2000/svg" version="1.1" xmlns:xlink="http://www.w3.org/1999/xlink" xmlns:svgjs="http://svgjs.dev/svgjs" width="1440" height="560" preserveAspectRatio="none" viewBox="0 0 1440 560">
    <g mask="url(&quot;#SvgjsMask1007&quot;)" fill="none">
        <path d="M52.65 -34.05L117.6 3.45L117.6 78.45L52.65 115.95L-12.3 78.45L-12.3 3.45zM117.6 78.45L182.56 115.95L182.56 190.95L117.6 228.45L52.65 190.95L52.65 115.95zM117.6 303.45L182.56 340.95L182.56 415.95L117.6 453.45L52.65 415.95L52.65 340.95zM52.65 415.95L117.6 453.45L117.6 528.45L52.65 565.95L-12.3 528.45L-12.3 453.45zM117.6 528.45L182.56 565.95L182.56 640.95L117.6 678.45L52.65 640.95L52.65 565.95zM182.56 -34.05L247.51 3.45L247.51 78.45L182.56 115.95L117.6 78.45L117.6 3.45zM182.56 190.95L247.51 228.45L247.51 303.45L182.56 340.95L117.6 303.45L117.6 228.45zM247.51 303.45L312.46 340.95L312.46 415.95L247.51 453.45L182.56 415.95L182.56 340.95zM182.56 415.95L247.51 453.45L247.51 528.45L182.56 565.95L117.6 528.45L117.6 453.45zM247.51 528.45L312.46 565.95L312.46 640.95L247.51 678.45L182.56 640.95L182.56 565.95zM312.46 -34.05L377.42 3.45L377.42 78.45L312.46 115.95L247.51 78.45L247.51 3.45zM312.46 190.95L377.42 228.45L377.42 303.45L312.46 340.95L247.51 303.45L247.51 228.45zM377.42 528.45L442.37 565.95L442.37 640.95L377.42 678.45L312.46 640.95L312.46 565.95zM442.37 -34.05L507.33 3.45L507.33 78.45L442.37 115.95L377.42 78.45L377.42 3.45zM507.33 78.45L572.28 115.95L572.28 190.95L507.33 228.45L442.37 190.95L442.37 115.95zM442.37 190.95L507.33 228.45L507.33 303.45L442.37 340.95L377.42 303.45L377.42 228.45zM507.33 303.45L572.28 340.95L572.28 415.95L507.33 453.45L442.37 415.95L442.37 340.95zM507.33 528.45L572.28 565.95L572.28 640.95L507.33 678.45L442.37 640.95L442.37 565.95zM637.23 78.45L702.19 115.95L702.19 190.95L637.23 228.45L572.28 190.95L572.28 115.95zM637.23 528.45L702.19 565.95L702.19 640.95L637.23 678.45L572.28 640.95L572.28 565.95zM767.14 78.45L832.1 115.95L832.1 190.95L767.14 228.45L702.19 190.95L702.19 115.95zM702.19 415.95L767.14 453.45L767.14 528.45L702.19 565.95L637.23 528.45L637.23 453.45zM832.09 415.95L897.05 453.45L897.05 528.45L832.09 565.95L767.14 528.45L767.14 453.45zM897.05 528.45L962 565.95L962 640.95L897.05 678.45L832.09 640.95L832.09 565.95zM962 -34.05L1026.96 3.45L1026.96 78.45L962 115.95L897.05 78.45L897.05 3.45zM1026.96 303.45L1091.91 340.95L1091.91 415.95L1026.96 453.45L962 415.95L962 340.95zM1091.91 -34.05L1156.86 3.45L1156.86 78.45L1091.91 115.95L1026.96 78.45L1026.96 3.45zM1156.86 303.45L1221.82 340.95L1221.82 415.95L1156.86 453.45L1091.91 415.95L1091.91 340.95zM1091.91 415.95L1156.86 453.45L1156.86 528.45L1091.91 565.95L1026.96 528.45L1026.96 453.45zM1156.86 528.45L1221.82 565.95L1221.82 640.95L1156.86 678.45L1091.91 640.95L1091.91 565.95zM1221.82 190.95L1286.77 228.45L1286.77 303.45L1221.82 340.95L1156.86 303.45L1156.86 228.45zM1286.77 303.45L1351.72 340.95L1351.72 415.95L1286.77 453.45L1221.82 415.95L1221.82 340.95zM1221.82 415.95L1286.77 453.45L1286.77 528.45L1221.82 565.95L1156.86 528.45L1156.86 453.45zM1286.77 528.45L1351.72 565.95L1351.72 640.95L1286.77 678.45L1221.82 640.95L1221.82 565.95zM1351.73 -34.05L1416.68 3.45L1416.68 78.45L1351.73 115.95L1286.77 78.45L1286.77 3.45zM1416.68 78.45L1481.63 115.95L1481.63 190.95L1416.68 228.45L1351.73 190.95L1351.73 115.95zM1481.63 -34.05L1546.59 3.45L1546.59 78.45L1481.63 115.95L1416.68 78.45L1416.68 3.45zM1481.63 190.95L1546.59 228.45L1546.59 303.45L1481.63 340.95L1416.68 303.45L1416.68 228.45zM1546.59 303.45L1611.54 340.95L1611.54 415.95L1546.59 453.45L1481.63 415.95L1481.63 340.95z" stroke="rgba(0, 0, 0, 0.06)" stroke-width="2"></path>
        <path d="M45.15 -34.05 a7.5 7.5 0 1 0 15 0 a7.5 7.5 0 1 0 -15 0zM110.1 3.45 a7.5 7.5 0 1 0 15 0 a7.5 7.5 0 1 0 -15 0zM110.1 78.45 a7.5 7.5 0 1 0 15 0 a7.5 7.5 0 1 0 -15 0zM45.15 115.95 a7.5 7.5 0 1 0 15 0 a7.5 7.5 0 1 0 -15 0zM-19.8 78.45 a7.5 7.5 0 1 0 15 0 a7.5 7.5 0 1 0 -15 0zM-19.8 3.45 a7.5 7.5 0 1 0 15 0 a7.5 7.5 0 1 0 -15 0zM175.06 115.95 a7.5 7.5 0 1 0 15 0 a7.5 7.5 0 1 0 -15 0zM175.06 190.95 a7.5 7.5 0 1 0 15 0 a7.5 7.5 0 1 0 -15 0zM110.1 228.45 a7.5 7.5 0 1 0 15 0 a7.5 7.5 0 1 0 -15 0zM45.15 190.95 a7.5 7.5 0 1 0 15 0 a7.5 7.5 0 1 0 -15 0zM110.1 303.45 a7.5 7.5 0 1 0 15 0 a7.5 7.5 0 1 0 -15 0zM175.06 340.95 a7.5 7.5 0 1 0 15 0 a7.5 7.5 0 1 0 -15 0zM175.06 415.95 a7.5 7.5 0 1 0 15 0 a7.5 7.5 0 1 0 -15 0zM110.1 453.45 a7.5 7.5 0 1 0 15 0 a7.5 7.5 0 1 0 -15 0zM45.15 415.95 a7.5 7.5 0 1 0 15 0 a7.5 7.5 0 1 0 -15 0zM45.15 340.95 a7.5 7.5 0 1 0 15 0 a7.5 7.5 0 1 0 -15 0zM110.1 528.45 a7.5 7.5 0 1 0 15 0 a7.5 7.5 0 1 0 -15 0zM45.15 565.95 a7.5 7.5 0 1 0 15 0 a7.5 7.5 0 1 0 -15 0zM-19.8 528.45 a7.5 7.5 0 1 0 15 0 a7.5 7.5 0 1 0 -15 0zM-19.8 453.45 a7.5 7.5 0 1 0 15 0 a7.5 7.5 0 1 0 -15 0zM175.06 565.95 a7.5 7.5 0 1 0 15 0 a7.5 7.5 0 1 0 -15 0zM175.06 640.95 a7.5 7.5 0 1 0 15 0 a7.5 7.5 0 1 0 -15 0zM110.1 678.45 a7.5 7.5 0 1 0 15 0 a7.5 7.5 0 1 0 -15 0zM45.15 640.95 a7.5 7.5 0 1 0 15 0 a7.5 7.5 0 1 0 -15 0zM175.06 -34.05 a7.5 7.5 0 1 0 15 0 a7.5 7.5 0 1 0 -15 0zM240.01 3.45 a7.5 7.5 0 1 0 15 0 a7.5 7.5 0 1 0 -15 0zM240.01 78.45 a7.5 7.5 0 1 0 15 0 a7.5 7.5 0 1 0 -15 0zM240.01 228.45 a7.5 7.5 0 1 0 15 0 a7.5 7.5 0 1 0 -15 0zM240.01 303.45 a7.5 7.5 0 1 0 15 0 a7.5 7.5 0 1 0 -15 0zM304.96 340.95 a7.5 7.5 0 1 0 15 0 a7.5 7.5 0 1 0 -15 0zM304.96 415.95 a7.5 7.5 0 1 0 15 0 a7.5 7.5 0 1 0 -15 0zM240.01 453.45 a7.5 7.5 0 1 0 15 0 a7.5 7.5 0 1 0 -15 0zM240.01 528.45 a7.5 7.5 0 1 0 15 0 a7.5 7.5 0 1 0 -15 0zM304.96 565.95 a7.5 7.5 0 1 0 15 0 a7.5 7.5 0 1 0 -15 0zM304.96 640.95 a7.5 7.5 0 1 0 15 0 a7.5 7.5 0 1 0 -15 0zM240.01 678.45 a7.5 7.5 0 1 0 15 0 a7.5 7.5 0 1 0 -15 0zM304.96 -34.05 a7.5 7.5 0 1 0 15 0 a7.5 7.5 0 1 0 -15 0zM369.92 3.45 a7.5 7.5 0 1 0 15 0 a7.5 7.5 0 1 0 -15 0zM369.92 78.45 a7.5 7.5 0 1 0 15 0 a7.5 7.5 0 1 0 -15 0zM304.96 115.95 a7.5 7.5 0 1 0 15 0 a7.5 7.5 0 1 0 -15 0zM304.96 190.95 a7.5 7.5 0 1 0 15 0 a7.5 7.5 0 1 0 -15 0zM369.92 228.45 a7.5 7.5 0 1 0 15 0 a7.5 7.5 0 1 0 -15 0zM369.92 303.45 a7.5 7.5 0 1 0 15 0 a7.5 7.5 0 1 0 -15 0zM369.92 528.45 a7.5 7.5 0 1 0 15 0 a7.5 7.5 0 1 0 -15 0zM434.87 565.95 a7.5 7.5 0 1 0 15 0 a7.5 7.5 0 1 0 -15 0zM434.87 640.95 a7.5 7.5 0 1 0 15 0 a7.5 7.5 0 1 0 -15 0zM369.92 678.45 a7.5 7.5 0 1 0 15 0 a7.5 7.5 0 1 0 -15 0zM434.87 -34.05 a7.5 7.5 0 1 0 15 0 a7.5 7.5 0 1 0 -15 0zM499.83 3.45 a7.5 7.5 0 1 0 15 0 a7.5 7.5 0 1 0 -15 0zM499.83 78.45 a7.5 7.5 0 1 0 15 0 a7.5 7.5 0 1 0 -15 0zM434.87 115.95 a7.5 7.5 0 1 0 15 0 a7.5 7.5 0 1 0 -15 0zM564.78 115.95 a7.5 7.5 0 1 0 15 0 a7.5 7.5 0 1 0 -15 0zM564.78 190.95 a7.5 7.5 0 1 0 15 0 a7.5 7.5 0 1 0 -15 0zM499.83 228.45 a7.5 7.5 0 1 0 15 0 a7.5 7.5 0 1 0 -15 0zM434.87 190.95 a7.5 7.5 0 1 0 15 0 a7.5 7.5 0 1 0 -15 0zM499.83 303.45 a7.5 7.5 0 1 0 15 0 a7.5 7.5 0 1 0 -15 0zM434.87 340.95 a7.5 7.5 0 1 0 15 0 a7.5 7.5 0 1 0 -15 0zM564.78 340.95 a7.5 7.5 0 1 0 15 0 a7.5 7.5 0 1 0 -15 0zM564.78 415.95 a7.5 7.5 0 1 0 15 0 a7.5 7.5 0 1 0 -15 0zM499.83 453.45 a7.5 7.5 0 1 0 15 0 a7.5 7.5 0 1 0 -15 0zM434.87 415.95 a7.5 7.5 0 1 0 15 0 a7.5 7.5 0 1 0 -15 0zM499.83 528.45 a7.5 7.5 0 1 0 15 0 a7.5 7.5 0 1 0 -15 0zM564.78 565.95 a7.5 7.5 0 1 0 15 0 a7.5 7.5 0 1 0 -15 0zM564.78 640.95 a7.5 7.5 0 1 0 15 0 a7.5 7.5 0 1 0 -15 0zM499.83 678.45 a7.5 7.5 0 1 0 15 0 a7.5 7.5 0 1 0 -15 0zM629.73 78.45 a7.5 7.5 0 1 0 15 0 a7.5 7.5 0 1 0 -15 0zM694.69 115.95 a7.5 7.5 0 1 0 15 0 a7.5 7.5 0 1 0 -15 0zM694.69 190.95 a7.5 7.5 0 1 0 15 0 a7.5 7.5 0 1 0 -15 0zM629.73 228.45 a7.5 7.5 0 1 0 15 0 a7.5 7.5 0 1 0 -15 0zM629.73 528.45 a7.5 7.5 0 1 0 15 0 a7.5 7.5 0 1 0 -15 0zM694.69 565.95 a7.5 7.5 0 1 0 15 0 a7.5 7.5 0 1 0 -15 0zM694.69 640.95 a7.5 7.5 0 1 0 15 0 a7.5 7.5 0 1 0 -15 0zM629.73 678.45 a7.5 7.5 0 1 0 15 0 a7.5 7.5 0 1 0 -15 0zM759.64 78.45 a7.5 7.5 0 1 0 15 0 a7.5 7.5 0 1 0 -15 0zM824.6 115.95 a7.5 7.5 0 1 0 15 0 a7.5 7.5 0 1 0 -15 0zM824.6 190.95 a7.5 7.5 0 1 0 15 0 a7.5 7.5 0 1 0 -15 0zM759.64 228.45 a7.5 7.5 0 1 0 15 0 a7.5 7.5 0 1 0 -15 0zM694.69 415.95 a7.5 7.5 0 1 0 15 0 a7.5 7.5 0 1 0 -15 0zM759.64 453.45 a7.5 7.5 0 1 0 15 0 a7.5 7.5 0 1 0 -15 0zM759.64 528.45 a7.5 7.5 0 1 0 15 0 a7.5 7.5 0 1 0 -15 0zM629.73 453.45 a7.5 7.5 0 1 0 15 0 a7.5 7.5 0 1 0 -15 0zM824.59 415.95 a7.5 7.5 0 1 0 15 0 a7.5 7.5 0 1 0 -15 0zM889.55 453.45 a7.5 7.5 0 1 0 15 0 a7.5 7.5 0 1 0 -15 0zM889.55 528.45 a7.5 7.5 0 1 0 15 0 a7.5 7.5 0 1 0 -15 0zM824.59 565.95 a7.5 7.5 0 1 0 15 0 a7.5 7.5 0 1 0 -15 0zM954.5 565.95 a7.5 7.5 0 1 0 15 0 a7.5 7.5 0 1 0 -15 0zM954.5 640.95 a7.5 7.5 0 1 0 15 0 a7.5 7.5 0 1 0 -15 0zM889.55 678.45 a7.5 7.5 0 1 0 15 0 a7.5 7.5 0 1 0 -15 0zM824.59 640.95 a7.5 7.5 0 1 0 15 0 a7.5 7.5 0 1 0 -15 0zM954.5 -34.05 a7.5 7.5 0 1 0 15 0 a7.5 7.5 0 1 0 -15 0zM1019.46 3.45 a7.5 7.5 0 1 0 15 0 a7.5 7.5 0 1 0 -15 0zM1019.46 78.45 a7.5 7.5 0 1 0 15 0 a7.5 7.5 0 1 0 -15 0zM954.5 115.95 a7.5 7.5 0 1 0 15 0 a7.5 7.5 0 1 0 -15 0zM889.55 78.45 a7.5 7.5 0 1 0 15 0 a7.5 7.5 0 1 0 -15 0zM889.55 3.45 a7.5 7.5 0 1 0 15 0 a7.5 7.5 0 1 0 -15 0zM1019.46 303.45 a7.5 7.5 0 1 0 15 0 a7.5 7.5 0 1 0 -15 0zM1084.41 340.95 a7.5 7.5 0 1 0 15 0 a7.5 7.5 0 1 0 -15 0zM1084.41 415.95 a7.5 7.5 0 1 0 15 0 a7.5 7.5 0 1 0 -15 0zM1019.46 453.45 a7.5 7.5 0 1 0 15 0 a7.5 7.5 0 1 0 -15 0zM954.5 415.95 a7.5 7.5 0 1 0 15 0 a7.5 7.5 0 1 0 -15 0zM954.5 340.95 a7.5 7.5 0 1 0 15 0 a7.5 7.5 0 1 0 -15 0zM1084.41 -34.05 a7.5 7.5 0 1 0 15 0 a7.5 7.5 0 1 0 -15 0zM1149.36 3.45 a7.5 7.5 0 1 0 15 0 a7.5 7.5 0 1 0 -15 0zM1149.36 78.45 a7.5 7.5 0 1 0 15 0 a7.5 7.5 0 1 0 -15 0zM1084.41 115.95 a7.5 7.5 0 1 0 15 0 a7.5 7.5 0 1 0 -15 0zM1149.36 303.45 a7.5 7.5 0 1 0 15 0 a7.5 7.5 0 1 0 -15 0zM1214.32 340.95 a7.5 7.5 0 1 0 15 0 a7.5 7.5 0 1 0 -15 0zM1214.32 415.95 a7.5 7.5 0 1 0 15 0 a7.5 7.5 0 1 0 -15 0zM1149.36 453.45 a7.5 7.5 0 1 0 15 0 a7.5 7.5 0 1 0 -15 0zM1149.36 528.45 a7.5 7.5 0 1 0 15 0 a7.5 7.5 0 1 0 -15 0zM1084.41 565.95 a7.5 7.5 0 1 0 15 0 a7.5 7.5 0 1 0 -15 0zM1019.46 528.45 a7.5 7.5 0 1 0 15 0 a7.5 7.5 0 1 0 -15 0zM1214.32 565.95 a7.5 7.5 0 1 0 15 0 a7.5 7.5 0 1 0 -15 0zM1214.32 640.95 a7.5 7.5 0 1 0 15 0 a7.5 7.5 0 1 0 -15 0zM1149.36 678.45 a7.5 7.5 0 1 0 15 0 a7.5 7.5 0 1 0 -15 0zM1084.41 640.95 a7.5 7.5 0 1 0 15 0 a7.5 7.5 0 1 0 -15 0zM1214.32 190.95 a7.5 7.5 0 1 0 15 0 a7.5 7.5 0 1 0 -15 0zM1279.27 228.45 a7.5 7.5 0 1 0 15 0 a7.5 7.5 0 1 0 -15 0zM1279.27 303.45 a7.5 7.5 0 1 0 15 0 a7.5 7.5 0 1 0 -15 0zM1149.36 228.45 a7.5 7.5 0 1 0 15 0 a7.5 7.5 0 1 0 -15 0zM1344.22 340.95 a7.5 7.5 0 1 0 15 0 a7.5 7.5 0 1 0 -15 0zM1344.22 415.95 a7.5 7.5 0 1 0 15 0 a7.5 7.5 0 1 0 -15 0zM1279.27 453.45 a7.5 7.5 0 1 0 15 0 a7.5 7.5 0 1 0 -15 0zM1279.27 528.45 a7.5 7.5 0 1 0 15 0 a7.5 7.5 0 1 0 -15 0zM1344.22 565.95 a7.5 7.5 0 1 0 15 0 a7.5 7.5 0 1 0 -15 0zM1344.22 640.95 a7.5 7.5 0 1 0 15 0 a7.5 7.5 0 1 0 -15 0zM1279.27 678.45 a7.5 7.5 0 1 0 15 0 a7.5 7.5 0 1 0 -15 0zM1344.23 -34.05 a7.5 7.5 0 1 0 15 0 a7.5 7.5 0 1 0 -15 0zM1409.18 3.45 a7.5 7.5 0 1 0 15 0 a7.5 7.5 0 1 0 -15 0zM1409.18 78.45 a7.5 7.5 0 1 0 15 0 a7.5 7.5 0 1 0 -15 0zM1344.23 115.95 a7.5 7.5 0 1 0 15 0 a7.5 7.5 0 1 0 -15 0zM1279.27 78.45 a7.5 7.5 0 1 0 15 0 a7.5 7.5 0 1 0 -15 0zM1279.27 3.45 a7.5 7.5 0 1 0 15 0 a7.5 7.5 0 1 0 -15 0zM1474.13 115.95 a7.5 7.5 0 1 0 15 0 a7.5 7.5 0 1 0 -15 0zM1474.13 190.95 a7.5 7.5 0 1 0 15 0 a7.5 7.5 0 1 0 -15 0zM1409.18 228.45 a7.5 7.5 0 1 0 15 0 a7.5 7.5 0 1 0 -15 0zM1344.23 190.95 a7.5 7.5 0 1 0 15 0 a7.5 7.5 0 1 0 -15 0zM1474.13 -34.05 a7.5 7.5 0 1 0 15 0 a7.5 7.5 0 1 0 -15 0zM1539.09 3.45 a7.5 7.5 0 1 0 15 0 a7.5 7.5 0 1 0 -15 0zM1539.09 78.45 a7.5 7.5 0 1 0 15 0 a7.5 7.5 0 1 0 -15 0zM1539.09 228.45 a7.5 7.5 0 1 0 15 0 a7.5 7.5 0 1 0 -15 0zM1539.09 303.45 a7.5 7.5 0 1 0 15 0 a7.5 7.5 0 1 0 -15 0zM1474.13 340.95 a7.5 7.5 0 1 0 15 0 a7.5 7.5 0 1 0 -15 0zM1409.18 303.45 a7.5 7.5 0 1 0 15 0 a7.5 7.5 0 1 0 -15 0zM1604.04 340.95 a7.5 7.5 0 1 0 15 0 a7.5 7.5 0 1 0 -15 0zM1604.04 415.95 a7.5 7.5 0 1 0 15 0 a7.5 7.5 0 1 0 -15 0zM1539.09 453.45 a7.5 7.5 0 1 0 15 0 a7.5 7.5 0 1 0 -15 0zM1474.13 415.95 a7.5 7.5 0 1 0 15 0 a7.5 7.5 0 1 0 -15 0z" fill="rgba(0, 0, 0, 0.06)"></path>
        <path d="M80.82 27.8L124.13 52.8L124.13 102.8L80.82 127.8L37.52 102.8L37.52 52.8zM80.82 177.8L124.13 202.8L124.13 252.8L80.82 277.8L37.52 252.8L37.52 202.8zM37.52 402.8L80.82 427.8L80.82 477.8L37.52 502.8L-5.78 477.8L-5.78 427.8zM124.13 102.8L167.43 127.8L167.43 177.8L124.13 202.8L80.82 177.8L80.82 127.8zM124.13 402.8L167.43 427.8L167.43 477.8L124.13 502.8L80.82 477.8L80.82 427.8zM167.43 477.8L210.73 502.8L210.73 552.8L167.43 577.8L124.13 552.8L124.13 502.8zM254.03 27.8L297.33 52.8L297.33 102.8L254.03 127.8L210.73 102.8L210.73 52.8zM210.73 102.8L254.03 127.8L254.03 177.8L210.73 202.8L167.43 177.8L167.43 127.8zM254.03 177.8L297.33 202.8L297.33 252.8L254.03 277.8L210.73 252.8L210.73 202.8zM254.03 477.8L297.33 502.8L297.33 552.8L254.03 577.8L210.73 552.8L210.73 502.8zM297.33 252.8L340.64 277.8L340.64 327.8L297.33 352.8L254.03 327.8L254.03 277.8zM340.64 327.8L383.94 352.8L383.94 402.8L340.64 427.8L297.33 402.8L297.33 352.8zM383.94 102.8L427.24 127.8L427.24 177.8L383.94 202.8L340.64 177.8L340.64 127.8zM427.24 177.8L470.55 202.8L470.55 252.8L427.24 277.8L383.94 252.8L383.94 202.8zM427.24 327.8L470.55 352.8L470.55 402.8L427.24 427.8L383.94 402.8L383.94 352.8zM470.55 252.8L513.85 277.8L513.85 327.8L470.55 352.8L427.24 327.8L427.24 277.8zM513.85 477.8L557.15 502.8L557.15 552.8L513.85 577.8L470.55 552.8L470.55 502.8zM557.15 252.8L600.45 277.8L600.45 327.8L557.15 352.8L513.85 327.8L513.85 277.8zM600.45 327.8L643.75 352.8L643.75 402.8L600.45 427.8L557.15 402.8L557.15 352.8zM600.45 477.8L643.75 502.8L643.75 552.8L600.45 577.8L557.15 552.8L557.15 502.8zM643.75 -47.2L687.06 -22.2L687.06 27.8L643.75 52.8L600.45 27.8L600.45 -22.2zM687.06 27.8L730.36 52.8L730.36 102.8L687.06 127.8L643.75 102.8L643.75 52.8zM643.75 102.8L687.06 127.8L687.06 177.8L643.75 202.8L600.45 177.8L600.45 127.8zM687.06 177.8L730.36 202.8L730.36 252.8L687.06 277.8L643.75 252.8L643.75 202.8zM687.06 327.8L730.36 352.8L730.36 402.8L687.06 427.8L643.75 402.8L643.75 352.8zM687.06 477.8L730.36 502.8L730.36 552.8L687.06 577.8L643.75 552.8L643.75 502.8zM730.36 -47.2L773.66 -22.2L773.66 27.8L730.36 52.8L687.06 27.8L687.06 -22.2zM773.66 27.8L816.97 52.8L816.97 102.8L773.66 127.8L730.36 102.8L730.36 52.8zM730.36 252.8L773.66 277.8L773.66 327.8L730.36 352.8L687.06 327.8L687.06 277.8zM860.27 27.8L903.57 52.8L903.57 102.8L860.27 127.8L816.97 102.8L816.97 52.8zM816.97 102.8L860.27 127.8L860.27 177.8L816.97 202.8L773.66 177.8L773.66 127.8zM816.97 252.8L860.27 277.8L860.27 327.8L816.97 352.8L773.66 327.8L773.66 277.8zM860.27 327.8L903.57 352.8L903.57 402.8L860.27 427.8L816.97 402.8L816.97 352.8zM903.57 -47.2L946.87 -22.2L946.87 27.8L903.57 52.8L860.27 27.8L860.27 -22.2zM946.87 27.8L990.18 52.8L990.18 102.8L946.87 127.8L903.57 102.8L903.57 52.8zM903.57 102.8L946.87 127.8L946.87 177.8L903.57 202.8L860.27 177.8L860.27 127.8zM946.87 477.8L990.18 502.8L990.18 552.8L946.87 577.8L903.57 552.8L903.57 502.8zM1033.48 27.8L1076.78 52.8L1076.78 102.8L1033.48 127.8L990.18 102.8L990.18 52.8zM990.18 252.8L1033.48 277.8L1033.48 327.8L990.18 352.8L946.87 327.8L946.87 277.8zM1033.48 327.8L1076.78 352.8L1076.78 402.8L1033.48 427.8L990.18 402.8L990.18 352.8zM1076.78 -47.2L1120.08 -22.2L1120.08 27.8L1076.78 52.8L1033.48 27.8L1033.48 -22.2zM1076.78 252.8L1120.08 277.8L1120.08 327.8L1076.78 352.8L1033.48 327.8L1033.48 277.8zM1076.78 402.8L1120.08 427.8L1120.08 477.8L1076.78 502.8L1033.48 477.8L1033.48 427.8zM1163.38 -47.2L1206.69 -22.2L1206.69 27.8L1163.38 52.8L1120.08 27.8L1120.08 -22.2zM1163.38 102.8L1206.69 127.8L1206.69 177.8L1163.38 202.8L1120.08 177.8L1120.08 127.8zM1206.69 177.8L1249.99 202.8L1249.99 252.8L1206.69 277.8L1163.38 252.8L1163.38 202.8zM1163.38 252.8L1206.69 277.8L1206.69 327.8L1163.38 352.8L1120.08 327.8L1120.08 277.8zM1206.69 327.8L1249.99 352.8L1249.99 402.8L1206.69 427.8L1163.38 402.8L1163.38 352.8zM1163.38 402.8L1206.69 427.8L1206.69 477.8L1163.38 502.8L1120.08 477.8L1120.08 427.8zM1249.99 252.8L1293.29 277.8L1293.29 327.8L1249.99 352.8L1206.69 327.8L1206.69 277.8zM1336.6 -47.2L1379.9 -22.2L1379.9 27.8L1336.6 52.8L1293.29 27.8L1293.29 -22.2zM1379.9 177.8L1423.2 202.8L1423.2 252.8L1379.9 277.8L1336.6 252.8L1336.6 202.8zM1336.6 252.8L1379.9 277.8L1379.9 327.8L1336.6 352.8L1293.29 327.8L1293.29 277.8zM1336.6 402.8L1379.9 427.8L1379.9 477.8L1336.6 502.8L1293.29 477.8L1293.29 427.8zM1379.9 477.8L1423.2 502.8L1423.2 552.8L1379.9 577.8L1336.6 552.8L1336.6 502.8zM1423.2 -47.2L1466.5 -22.2L1466.5 27.8L1423.2 52.8L1379.9 27.8L1379.9 -22.2zM1466.5 177.8L1509.81 202.8L1509.81 252.8L1466.5 277.8L1423.2 252.8L1423.2 202.8zM1466.5 327.8L1509.81 352.8L1509.81 402.8L1466.5 427.8L1423.2 402.8L1423.2 352.8z" stroke="rgba(0, 0, 0, 0.04)" stroke-width="2"></path>
    </g>
    <defs>
        <mask id="SvgjsMask1007">
            <rect width="1440" height="560" fill="#ffffff"></rect>
        </mask>
    </defs>
</svg>