<svg xmlns="http://www.w3.org/2000/svg" xmlns:xlink="http://www.w3.org/1999/xlink" style="margin: auto; background: rgba(241, 242, 243, 0.043); display: block;" width="177px" height="177px" viewBox="0 0 100 100" preserveAspectRatio="xMidYMid">
 <g transform="translate(50 50)">  <g transform="translate(-19 -19) scale(0.6)"> <g>
<animateTransform attributeName="transform" type="rotate" values="0;45" keyTimes="0;1" dur="0.5882352941176471s" begin="0s" repeatCount="indefinite"></animateTransform><path d="M31.787644940070013 22.5952567846449 L40.272926314308584 31.08053815888347 L31.08053815888347 40.272926314308584 L22.5952567846449 31.787644940070013 A39 39 0 0 1 6.500000000000001 38.45451859014751 L6.500000000000001 38.45451859014751 L6.500000000000002 50.45451859014751 L-6.499999999999996 50.45451859014751 L-6.4999999999999964 38.45451859014751 A39 39 0 0 1 -22.595256784644896 31.787644940070013 L-22.595256784644896 31.787644940070013 L-31.080538158883467 40.272926314308584 L-40.27292631430858 31.08053815888347 L-31.78764494007001 22.5952567846449 A39 39 0 0 1 -38.45451859014751 6.500000000000003 L-38.45451859014751 6.500000000000003 L-50.45451859014751 6.5000000000000036 L-50.45451859014751 -6.499999999999994 L-38.45451859014751 -6.499999999999995 A39 39 0 0 1 -31.78764494007002 -22.595256784644896 L-31.78764494007002 -22.595256784644896 L-40.27292631430859 -31.080538158883467 L-31.08053815888346 -40.27292631430859 L-22.59525678464489 -31.78764494007002 A39 39 0 0 1 -6.500000000000022 -38.4545185901475 L-6.500000000000022 -38.4545185901475 L-6.500000000000024 -50.4545185901475 L6.500000000000006 -50.45451859014751 L6.500000000000008 -38.45451859014751 A39 39 0 0 1 22.595256784644878 -31.787644940070027 L22.595256784644878 -31.787644940070027 L31.08053815888345 -40.2729263143086 L40.27292631430859 -31.08053815888346 L31.78764494007002 -22.59525678464489 A39 39 0 0 1 38.4545185901475 -6.500000000000026 L38.4545185901475 -6.500000000000026 L50.4545185901475 -6.500000000000028 L50.45451859014751 6.5000000000000036 L38.45451859014751 6.500000000000006 A39 39 0 0 1 31.78764494007003 22.595256784644874 M0 -29A29 29 0 1 0 0 29 A29 29 0 1 0 0 -29" fill="#0a0a0a"></path></g></g> <g transform="translate(19 19) scale(0.6)"> <g>
<animateTransform attributeName="transform" type="rotate" values="45;0" keyTimes="0;1" dur="0.5882352941176471s" begin="-0.29411764705882354s" repeatCount="indefinite"></animateTransform><path d="M-31.78764494007002 -22.595256784644896 L-40.27292631430859 -31.080538158883467 L-31.08053815888346 -40.27292631430859 L-22.59525678464489 -31.78764494007002 A39 39 0 0 1 -6.500000000000022 -38.4545185901475 L-6.500000000000022 -38.4545185901475 L-6.500000000000024 -50.4545185901475 L6.500000000000006 -50.45451859014751 L6.500000000000008 -38.45451859014751 A39 39 0 0 1 22.595256784644878 -31.787644940070027 L22.595256784644878 -31.787644940070027 L31.08053815888345 -40.2729263143086 L40.27292631430859 -31.08053815888346 L31.78764494007002 -22.59525678464489 A39 39 0 0 1 38.4545185901475 -6.500000000000026 L38.4545185901475 -6.500000000000026 L50.4545185901475 -6.500000000000028 L50.45451859014751 6.5000000000000036 L38.45451859014751 6.500000000000006 A39 39 0 0 1 31.78764494007003 22.595256784644874 L31.78764494007003 22.595256784644874 L40.272926314308606 31.080538158883442 L31.08053815888346 40.27292631430859 L22.59525678464489 31.78764494007002 A39 39 0 0 1 6.5000000000000275 38.4545185901475 L6.5000000000000275 38.4545185901475 L6.500000000000036 50.4545185901475 L-6.49999999999996 50.45451859014751 L-6.499999999999969 38.45451859014751 A39 39 0 0 1 -22.595256784644874 31.78764494007003 L-22.595256784644874 31.78764494007003 L-31.080538158883435 40.27292631430861 L-40.272926314308535 31.080538158883527 L-31.787644940069974 22.59525678464495 A39 39 0 0 1 -38.45451859014751 6.499999999999996 L-38.45451859014751 6.499999999999996 L-50.45451859014751 6.5 L-50.45451859014751 -6.499999999999963 L-38.45451859014751 -6.499999999999967 A39 39 0 0 1 -31.787644940069992 -22.595256784644928 M0 -29A29 29 0 1 0 0 29 A29 29 0 1 0 0 -29" fill="#f9ae5c"></path></g></g></g>
</svg>